# xmcd CD database file
#
# Track frame offsets:
#	150
#	18841
#	39306
#	57111
#	75265
#	97338
#	110600
#	136808
#	161598
#	183437
#	203286
#	227986
#	247623
#	268234
#	284738
#	305969
#	322204
#	335039
#
# Disc length: 4680 seconds
#
# Revision: 1
# Processed by: cddbd v1.5.2PL0 Copyright (c) Steve Scherf et al.
# Submitted via: CDex 1.51
#
DISCID=01124612
DTITLE=Various Artist - ZM-Leg-3
DYEAR=1900
DGENRE=Blues
TTITLE0=Elton John - Your Song
TTITLE1=Elton John - Rocket Man
TTITLE2=Elton John - Crocodile Rock
TTITLE3=Elton John - Daniel
TTITLE4=Elton john - Saturday Night's Alright For fighting
TTITLE5=Billy Joel - She's Got A Way
TTITLE6=Billy Joel - Piano Man
TTITLE7=Billy Joel - New York State Of Mind
TTITLE8=Billy Joel - My Life
TTITLE9=Billy Joel - Just The Way You Are
TTITLE10=Rod Stewart - Maggie May
TTITLE11=Rod Stewart - You Wear It Well
TTITLE12=Rod Stewart - Sailing
TTITLE13=Rod Stewart - Tonight's The Night
TTITLE14=Rod Stewart - The Killing Of Georgie
TTITLE15=Barry Manilow - Mandy
TTITLE16=Barry Manilow - One Voice
TTITLE17=Barry Manilow - Can't Smile Without You
EXTD=
EXTT0=
EXTT1=
EXTT2=
EXTT3=
EXTT4=
EXTT5=
EXTT6=
EXTT7=
EXTT8=
EXTT9=
EXTT10=
EXTT11=
EXTT12=
EXTT13=
EXTT14=
EXTT15=
EXTT16=
EXTT17=
PLAYORDER=
